# xmcd CD database file
#
# Track frame offsets:
#	150
#	11312
#	29776
#	49088
#	65345
#	84938
#	98559
#	109116
#	123982
#	144199
#	160342
#	180897
#	200769
#	217081
#	229443
#	252689
#	268891
#	289655
#	307724
#	320801
#	339732
#
# Disc length: 4699 seconds
#
# Revision: 0
# Processed by: cddbd v1.5.2PL0 Copyright (c) Steve Scherf et al.
# Submitted via: CDex 1.97
#
DISCID=34125915
DTITLE=Various Artist - Now Jazz - Disc 1
DYEAR=2018
DGENRE=Jazz
TTITLE0=Frank Sinatra - Fly Me To The Moon
TTITLE1=Michael Buble - Haven't Met You Yet
TTITLE2=Amy Winehouse - You Know I'm No Good
TTITLE3=Gregory Porter - Liquid Spirit
TTITLE4=George Michael - Brother Can You Spare A Dime
TTITLE5=Etta James - At Last
TTITLE6=Louis Armstrong - What A Wonderful World
TTITLE7=Norah Jones - Come Away With Me
TTITLE8=Robbie Williams - Beyond The Sea
TTITLE9=Aretha Franklin - I Say A Little Prayer
TTITLE10=Van Morrison - Moondance
TTITLE11=Sting - Englishman In New York
TTITLE12=Nina Simone - My Baby Just Cares For Me
TTITLE13=Nat King Cole - Let There Be Love
TTITLE14=Jamie Cullum - What A Difference A Day Made
TTITLE15=Rumer - Slow
TTITLE16=Sade - By Your Side
TTITLE17=John Mayer - Slow Dancing In A Burning Room
TTITLE18=Rebecca Ferguson - Nothing's Real But Love
TTITLE19=Laura Mvula - Green Garden
TTITLE20=Natalie Cole - This Will Be (An Everlasting Love)
EXTD=YEAR: 2018
EXTT0=
EXTT1=
EXTT2=
EXTT3=
EXTT4=
EXTT5=
EXTT6=
EXTT7=
EXTT8=
EXTT9=
EXTT10=
EXTT11=
EXTT12=
EXTT13=
EXTT14=
EXTT15=
EXTT16=
EXTT17=
EXTT18=
EXTT19=
EXTT20=
PLAYORDER=
